<svg xmlns="http://www.w3.org/2000/svg" id="Group_37931" data-name="Group 37931" width="185.615" height="43.584" viewBox="0 0 185.615 43.584">
  <path id="Path_90272" data-name="Path 90272" d="M2535.38,222.42h0Z" transform="translate(-2411.085 -211.516)" fill="#fff"/>
  <path id="Path_90273" data-name="Path 90273" d="M2236.987,199.163a6.4,6.4,0,0,1,4.532-.416,7.073,7.073,0,0,1,2.018.867l-.3.292c-.528.516-1.024,1-1.516,1.491l-2.035,2.031a2.665,2.665,0,0,0-.765,2.077,2.715,2.715,0,0,0,4.61,1.739q1.232-1.217,2.451-2.45c.811-.82,1.617-1.644,2.442-2.489a4.041,4.041,0,0,0-.144-5.79,12.283,12.283,0,0,0-17,.284q-2.237,2.212-4.454,4.44l-3.5,3.5c-.62.617-1.253,1.219-1.886,1.821-.8.76-1.6,1.52-2.37,2.307l-.509.529a8.375,8.375,0,0,1-3.131,2.407,7.1,7.1,0,0,1-6.673-.73,7.328,7.328,0,0,1-2.093-2.494,6.379,6.379,0,0,1,.75-7.4,7.308,7.308,0,0,1,1.787-1.612,6.732,6.732,0,0,1,5.25-.783,6.856,6.856,0,0,1,1.765.749l-.316.343c-.79.863-1.56,1.7-2.338,2.543l-.156.172c-.254.274-.518.541-.781.808l-.474.486a2.6,2.6,0,0,0-.742,1.937,2.66,2.66,0,0,0,4.53,1.79l5.251-5.205.093-.1a3.99,3.99,0,0,0,.373-5.2,12.066,12.066,0,0,0-1.029-.981,12.663,12.663,0,0,0-1.025-.776c-.268-.181-.547-.348-.869-.529a12.252,12.252,0,0,0-1.252-.611l-.192-.071c-.312-.119-.63-.226-.948-.319-.283-.086-.567-.165-.86-.232a12.628,12.628,0,0,0-1.374-.223c-.223-.025-.445-.04-.671-.052-.413-.021-.824-.017-1.244,0l-.145.007c-.086,0-.172.007-.267.016-.158.016-.318.033-.463.052-.075.009-.15.02-.249.038-.25.031-.5.076-.763.125a12.21,12.21,0,0,0-4.953,21.537c.267.206.532.41.813.593l.113.069a12.366,12.366,0,0,0,6.625,1.932h.05c.11,0,.218-.009.326-.016l.137-.008c.273-.012.545-.029.822-.06.236-.027.468-.066.7-.106.187-.033.375-.069.561-.11.26-.059.519-.124.773-.2.153-.046.3-.1.453-.149.271-.092.544-.185.8-.295.064-.026.128-.057.279-.132a12.621,12.621,0,0,0,1.577-.858c.1-.064.208-.128.312-.2.237-.162.463-.337.684-.513.117-.092.232-.188.343-.283l.159-.129c.106-.084.213-.168.325-.275l13.882-13.7A7.893,7.893,0,0,1,2236.987,199.163Zm-19.9-4.5h0Z" transform="translate(-2092.794 -183.763)" fill="#fff"/>
  <path id="Path_90274" data-name="Path 90274" d="M2799.437,442.551a2.593,2.593,0,0,0-1.864,1.788,6.744,6.744,0,0,1-2.212,3.44c-2.575,2.129-7.042,1.8-9.557-.719l-1.11-1.109a2.645,2.645,0,0,0-1.882-.78h0a2.661,2.661,0,0,0-1.881,4.543l1.385,1.386a12.276,12.276,0,0,0,8.655,3.577c.129,0,.259,0,.389-.005a12.126,12.126,0,0,0,8.8-4.157,11.9,11.9,0,0,0,2.55-4.728,2.565,2.565,0,0,0-.664-2.511A2.715,2.715,0,0,0,2799.437,442.551Z" transform="translate(-2643.856 -420.773)" fill="#fff"/>
  <path id="Path_90275" data-name="Path 90275" d="M20.346,192.355a13.425,13.425,0,0,0-3.465-1.5,16.407,16.407,0,0,0-4.713-.649,14.594,14.594,0,0,0-6.358,1.322,9.65,9.65,0,0,0-4.29,3.94A12.785,12.785,0,0,0,0,201.98a13.6,13.6,0,0,0,1.5,6.831,8.67,8.67,0,0,0,3.99,3.715,13.071,13.071,0,0,0,5.435,1.122,11.448,11.448,0,0,0,3.765-.548,10.665,10.665,0,0,0,1.67-.735v2.281a4.2,4.2,0,0,1-1.695,3.715,8.15,8.15,0,0,1-4.687,1.171,12.929,12.929,0,0,1-3.965-.6q-.666-.213-1.254-.452a2.27,2.27,0,0,0-2.889,1.07h0a2.1,2.1,0,0,0-.2,1.531,3.219,3.219,0,0,0,1.522,1.841,11.04,11.04,0,0,0,2.817,1.047,18.109,18.109,0,0,0,4.513.5,16.908,16.908,0,0,0,5.96-1,8.943,8.943,0,0,0,4.213-3.116,9.128,9.128,0,0,0,1.547-5.511v-19.3a3.251,3.251,0,0,0-.525-1.87A4.762,4.762,0,0,0,20.346,192.355Zm-4.089,15.077a10.77,10.77,0,0,1-1.272.831,6.315,6.315,0,0,1-3.066.648A5.826,5.826,0,0,1,7.8,207.366q-1.672-1.545-1.671-5.385,0-3.49,1.72-5.186a6.092,6.092,0,0,1,4.464-1.7,7.9,7.9,0,0,1,2.344.3,7.217,7.217,0,0,1,1.6.7v11.336Z" transform="translate(0 -180.885)" fill="#fff"/>
  <path id="Path_90276" data-name="Path 90276" d="M555.591,199.4l-2.543-.6a4.844,4.844,0,0,1-2.195-.947,1.9,1.9,0,0,1-.648-1.447,1.94,1.94,0,0,1,1.122-1.77,6.354,6.354,0,0,1,3.066-.624,12.578,12.578,0,0,1,2.594.275,7.676,7.676,0,0,1,1.757.484l.351.147a2.2,2.2,0,0,0,2.8-.995h0a2.091,2.091,0,0,0,.029-2.012,3.2,3.2,0,0,0-.726-.84,7.357,7.357,0,0,0-2.967-1.371,17.723,17.723,0,0,0-4.29-.474,11.413,11.413,0,0,0-7.18,2.019,6.263,6.263,0,0,0-2.594,5.161,5.991,5.991,0,0,0,1.77,4.539,11.168,11.168,0,0,0,5.411,2.494l2.842.748a4.754,4.754,0,0,1,2.294.972,2.268,2.268,0,0,1,.748,1.77q0,2.593-4.239,2.593a11.759,11.759,0,0,1-4.19-.7q-.732-.277-1.393-.585a2.235,2.235,0,0,0-2.914.975h0a2.161,2.161,0,0,0-.073,2,4.563,4.563,0,0,0,2.236,1.9,15.388,15.388,0,0,0,6.532,1.2q4.937,0,7.53-1.969a6.474,6.474,0,0,0,2.594-5.461,6.335,6.335,0,0,0-1.846-4.713A12.279,12.279,0,0,0,555.591,199.4Z" transform="translate(-517.493 -179.953)" fill="#fff"/>
  <path id="Path_90277" data-name="Path 90277" d="M1861.13.848A11.363,11.363,0,0,0,1856.193,0a13.614,13.614,0,0,0-5.161.922,7.43,7.43,0,0,0-3.54,2.893,9.275,9.275,0,0,0-1.271,5.111V31.32a3.066,3.066,0,0,0,3.066,3.066h0a3.067,3.067,0,0,0,3.067-3.066V16.357h6.424a2.394,2.394,0,0,0,2.394-2.385h0a2.394,2.394,0,0,0-2.394-2.4H1852.1V9.175a4.064,4.064,0,0,1,1.2-3.291,5.97,5.97,0,0,1,3.84-1,11.844,11.844,0,0,1,2.469.249q.219.047.43.1a2.186,2.186,0,0,0,2.621-2.778A2.686,2.686,0,0,0,1861.13.848Z" transform="translate(-1755.711 0)" fill="#fff"/>
  <path id="Path_90278" data-name="Path 90278" d="M3338.132,24.41h0a3.067,3.067,0,0,0-3.067,3.067v5.994a13,13,0,0,0-1.371-.484,11.874,11.874,0,0,0-3.366-.449,13.836,13.836,0,0,0-6.083,1.322,10,10,0,0,0-4.364,4.114,14.067,14.067,0,0,0-1.62,7.131,13.862,13.862,0,0,0,1.6,7.006,9.71,9.71,0,0,0,4.513,4.09,18.319,18.319,0,0,0,11.57.7,12.365,12.365,0,0,0,3.266-1.421,4.773,4.773,0,0,0,1.521-1.371,3.262,3.262,0,0,0,.474-1.82V27.477A3.067,3.067,0,0,0,3338.132,24.41Zm-3.067,27.228a7.09,7.09,0,0,1-1.6.7,7.656,7.656,0,0,1-2.294.3,6.534,6.534,0,0,1-4.836-1.8q-1.795-1.8-1.8-5.684a10.114,10.114,0,0,1,.848-4.464,5.356,5.356,0,0,1,2.344-2.493,7.157,7.157,0,0,1,3.342-.774,7.619,7.619,0,0,1,2.992.549,8.843,8.843,0,0,1,1,.5Z" transform="translate(-3155.585 -23.213)" fill="#fff"/>
  <path id="Path_90279" data-name="Path 90279" d="M1052.962,193.8a7.071,7.071,0,0,0-1.743-1.839,7.4,7.4,0,0,0-1.649-.9,12.933,12.933,0,0,0-4.787-.848c-.18,0-.359,0-.534.009s-.375-.009-.563-.009a12.973,12.973,0,0,0-4.489.749,8.477,8.477,0,0,0-2.493,1.4,8.478,8.478,0,0,0-2.493-1.4,12.97,12.97,0,0,0-4.489-.749c-.188,0-.376,0-.563.009s-.354-.009-.534-.009a12.92,12.92,0,0,0-4.787.848,7.413,7.413,0,0,0-1.649.9,7.073,7.073,0,0,0-1.743,1.839,8.748,8.748,0,0,0-1.246,4.887v13.844a2.629,2.629,0,0,0,.15.622,3.067,3.067,0,0,0,2.882,2.118h.013a2.963,2.963,0,0,0,3.088-2.96V198.887a3.543,3.543,0,0,1,1.1-2.867,3.884,3.884,0,0,1,1.811-.822,7.842,7.842,0,0,1,1.194-.1,6.485,6.485,0,0,1,2.171.4,4,4,0,0,1,.884.526,3.108,3.108,0,0,1,1.121,2.115v14.07a3.067,3.067,0,0,0,3.067,3.067h.05a3.067,3.067,0,0,0,3.067-3.067V198.134a3.11,3.11,0,0,1,1.121-2.115,4.021,4.021,0,0,1,.884-.526,6.484,6.484,0,0,1,2.171-.4,7.842,7.842,0,0,1,1.194.1,3.886,3.886,0,0,1,1.812.822,3.541,3.541,0,0,1,1.1,2.867v13.425a2.962,2.962,0,0,0,3.088,2.96h.013a3.067,3.067,0,0,0,2.882-2.117,2.6,2.6,0,0,0,.15-.622V198.688A8.726,8.726,0,0,0,1052.962,193.8Z" transform="translate(-969.234 -180.885)" fill="#fff"/>
</svg>